<svg width="139" height="616" viewBox="0 0 139 616" fill="none" xmlns="http://www.w3.org/2000/svg">
<path d="M138.999 531.2L138.999 615.2L0.799014 615.2L0.799013 595.4L121.599 595.4L121.599 551L104.399 551L84.799 531.2L138.999 531.2ZM138.999 392.434L138.999 461.434L35.199 461.434L18.199 444.034L18.199 463.834L0.799007 463.834L0.799004 392.434L18.199 392.434L18.199 441.634L67.399 441.634L52.599 427.034L52.599 392.434L69.799 392.434L69.799 441.634L121.599 441.634L121.599 392.434L138.999 392.434ZM138.999 234.802L138.999 318.802L0.799001 318.802L0.799 299.002L121.599 299.002L121.599 254.602L104.399 254.602L84.799 234.802L138.999 234.802ZM138.999 96.0359L138.999 165.036L35.199 165.036L18.199 147.636L18.199 167.436L0.798994 167.436L0.798991 96.0359L18.199 96.0359L18.199 145.236L67.399 145.236L52.599 130.636L52.599 96.0359L69.799 96.0359L69.799 145.236L121.599 145.236L121.599 96.0359L138.999 96.0359ZM138.999 0.203115L138.999 22.4031L116.799 22.4031L116.799 0.203116L138.999 0.203115Z" fill="black"/>
</svg>
