<svg width="77" height="39" viewBox="0 0 77 39" fill="none" xmlns="http://www.w3.org/2000/svg">
<path d="M8.672 30H5.536L2.784 27.216V7.472L5.952 4.336V27.216H8.672V30ZM22.7943 30H14.1223L11.3703 27.216V16.176L14.1223 13.392H20.0423L22.7943 16.176V21.712L20.0423 24.464H14.9223L17.7383 21.712H19.6583V16.176H14.5383V27.216H22.7943V30ZM33.172 30H30.036L27.284 27.216V7.472L30.452 4.336V27.216H33.172V30ZM47.2943 30H38.6223L35.8703 27.216V16.176L38.6223 13.392H44.5423L47.2943 16.176V21.712L44.5423 24.464H39.4223L42.2383 21.712H44.1583V16.176H39.0383V27.216H47.2943V30Z" fill="black"/>
<circle cx="65.5" cy="19.5" r="10.6154" stroke="black" stroke-width="1.76923"/>
<path fill-rule="evenodd" clip-rule="evenodd" d="M64.4579 19.0089L63.2001 12.6L61.9425 19.0089L57.0669 20.2666L61.9425 21.5243L63.2002 26.4L64.4579 21.5243L65.5991 21.23L66.7402 21.5243L67.9979 26.4L69.2556 21.5243L74.1312 20.2666L69.2556 19.0089L67.9978 12.6L66.7402 19.0089L65.5991 19.3033L64.4579 19.0089ZM65.5991 19.3033L61.8646 20.2666L65.5991 21.23L69.3336 20.2666L65.5991 19.3033Z" fill="black"/>
</svg>
