<svg width="838" height="800" viewBox="0 0 838 800" fill="none" xmlns="http://www.w3.org/2000/svg">
<g filter="url(#filter0_d_233_65)">
<circle cx="438.646" cy="396" r="367" fill="#D75D3E"/>
</g>
<path fill-rule="evenodd" clip-rule="evenodd" d="M93.1465 273H65.4465V169.6H109.846V204L129.646 184V169.6L112.246 152.2H62.8465L45.6465 169.6V273L62.8465 290.4H87.3465L93.1465 273ZM257.579 290.4H237.779V221.2H190.979V290.4H171.179V152.2H190.979V218.8L205.579 204H237.779V152.2H257.579V290.4ZM328.956 290.4H309.155V152.2H328.956V290.4ZM476.73 290.2H438.53L404.93 169.8H387.93L400.331 181.6V290.2H380.53V152H418.93L452.13 272.8H469.331L456.93 260.2V152H476.73V290.2ZM597.273 290.4H528.273V186.6L545.673 169.6H525.874V152.2H597.273V169.6H548.073V218.8L562.673 204H597.273V221.2H548.073V273H597.273V290.4ZM720.505 169.6H652.505V204H698.305L715.305 221.2V273L698.305 290.4H649.905L632.705 273V259.2L652.505 240.2V273H695.505V221.2H649.905L632.705 204V169.6L649.905 152.2H703.105L720.505 169.6ZM831.038 290.4H790.697C789.187 285.864 786.897 279.793 784.181 273H831.038V290.4ZM762.038 186.6V222.782C767.865 234.58 775.601 252.026 781.838 267.222V221.2H831.038V204H796.438L781.838 218.8V169.6H831.038V152.2H759.638V169.6H779.438L762.038 186.6Z" fill="black"/>
<line x1="307.646" y1="127.5" x2="329.646" y2="127.5" stroke="black" stroke-width="13"/>
<path d="M390.648 181L390.648 383" stroke="black" stroke-width="20"/>
<mask id="path-5-outside-1_233_65" maskUnits="userSpaceOnUse" x="0" y="314.664" width="528" height="69" fill="black">
<rect fill="white" y="314.664" width="528" height="69"/>
<path fill-rule="evenodd" clip-rule="evenodd" d="M73.4478 372.68C73.2859 375.037 73.1826 377.165 73.1479 379C73.1274 380.087 73.0938 381.085 73.0476 382H97.0637L105.416 373.648V324.016L97.0637 315.664H81.1436C80.656 318.277 80.1598 321.083 79.6656 324.016H95.9117V373.648H73.4478V372.68ZM32.968 382L41.32 373.648V357.136L31.816 366.64V373.648H10.504V324.016H31.816V340.528L41.32 330.928V324.016L32.968 315.664H9.256L1 324.016V373.648L9.256 382H32.968ZM139.161 324.016H171.801L163.449 315.664H137.913L129.657 324.016V340.528L137.913 348.784H159.801V373.648H139.161V357.904L129.657 367.024V373.648L137.913 382H161.145L169.305 373.648V348.784L161.145 340.528H139.161V324.016ZM240.601 381.904H250.105V315.664H233.689L223.609 337.456H222.457L212.569 315.664H195.577V381.904H205.081V329.968L199.129 324.112H206.809L219.097 348.784H226.009L238.777 324.112H246.553L240.601 329.968V381.904ZM278.677 382H311.797V373.648H288.181V348.784H311.797V340.528H295.189L288.181 347.632V324.016H311.797V315.664H277.525V324.016H287.029L278.677 332.176V382ZM350.405 324.016H365.285V315.664H326.117V324.016H340.901V382H350.405V324.016ZM384.408 382H393.912V315.664H384.408V382ZM453.324 382L461.676 373.648V357.136L452.172 366.64V373.648H430.86V324.016H452.172V340.528L461.676 330.928V324.016L453.324 315.664H429.612L421.356 324.016V373.648L429.612 382H453.324ZM491.98 324.016H524.62L516.268 315.664H490.732L482.476 324.016V340.528L490.732 348.784H512.62V373.648H491.98V357.904L482.476 367.024V373.648L490.732 382H513.964L522.124 373.648V348.784L513.964 340.528H491.98V324.016Z"/>
</mask>
<path fill-rule="evenodd" clip-rule="evenodd" d="M73.4478 372.68C73.2859 375.037 73.1826 377.165 73.1479 379C73.1274 380.087 73.0938 381.085 73.0476 382H97.0637L105.416 373.648V324.016L97.0637 315.664H81.1436C80.656 318.277 80.1598 321.083 79.6656 324.016H95.9117V373.648H73.4478V372.68ZM32.968 382L41.32 373.648V357.136L31.816 366.64V373.648H10.504V324.016H31.816V340.528L41.32 330.928V324.016L32.968 315.664H9.256L1 324.016V373.648L9.256 382H32.968ZM139.161 324.016H171.801L163.449 315.664H137.913L129.657 324.016V340.528L137.913 348.784H159.801V373.648H139.161V357.904L129.657 367.024V373.648L137.913 382H161.145L169.305 373.648V348.784L161.145 340.528H139.161V324.016ZM240.601 381.904H250.105V315.664H233.689L223.609 337.456H222.457L212.569 315.664H195.577V381.904H205.081V329.968L199.129 324.112H206.809L219.097 348.784H226.009L238.777 324.112H246.553L240.601 329.968V381.904ZM278.677 382H311.797V373.648H288.181V348.784H311.797V340.528H295.189L288.181 347.632V324.016H311.797V315.664H277.525V324.016H287.029L278.677 332.176V382ZM350.405 324.016H365.285V315.664H326.117V324.016H340.901V382H350.405V324.016ZM384.408 382H393.912V315.664H384.408V382ZM453.324 382L461.676 373.648V357.136L452.172 366.64V373.648H430.86V324.016H452.172V340.528L461.676 330.928V324.016L453.324 315.664H429.612L421.356 324.016V373.648L429.612 382H453.324ZM491.98 324.016H524.62L516.268 315.664H490.732L482.476 324.016V340.528L490.732 348.784H512.62V373.648H491.98V357.904L482.476 367.024V373.648L490.732 382H513.964L522.124 373.648V348.784L513.964 340.528H491.98V324.016Z" fill="black"/>
<path d="M73.1479 379L72.1481 378.981L72.1481 378.981L73.1479 379ZM73.4478 372.68H74.4478L72.4501 372.611L73.4478 372.68ZM73.0476 382L72.0489 381.95L71.996 383H73.0476V382ZM97.0637 382V383H97.478L97.7709 382.707L97.0637 382ZM105.416 373.648L106.123 374.355L106.416 374.062V373.648H105.416ZM105.416 324.016H106.416V323.602L106.123 323.309L105.416 324.016ZM97.0637 315.664L97.7709 314.957L97.478 314.664H97.0637V315.664ZM81.1436 315.664V314.664H80.313L80.1606 315.481L81.1436 315.664ZM79.6656 324.016L78.6795 323.85L78.483 325.016H79.6656V324.016ZM95.9117 324.016H96.9117V323.016H95.9117V324.016ZM95.9117 373.648V374.648H96.9117V373.648H95.9117ZM73.4478 373.648H72.4478V374.648H73.4478V373.648ZM41.32 373.648L42.0271 374.355L42.32 374.062V373.648H41.32ZM32.968 382V383H33.3822L33.6751 382.707L32.968 382ZM41.32 357.136H42.32V354.722L40.6129 356.429L41.32 357.136ZM31.816 366.64L31.1089 365.933L30.816 366.226V366.64H31.816ZM31.816 373.648V374.648H32.816V373.648H31.816ZM10.504 373.648H9.504V374.648H10.504V373.648ZM10.504 324.016V323.016H9.504V324.016H10.504ZM31.816 324.016H32.816V323.016H31.816V324.016ZM31.816 340.528H30.816V342.959L32.5267 341.232L31.816 340.528ZM41.32 330.928L42.0307 331.632L42.32 331.339V330.928H41.32ZM41.32 324.016H42.32V323.602L42.0271 323.309L41.32 324.016ZM32.968 315.664L33.6751 314.957L33.3822 314.664H32.968V315.664ZM9.256 315.664V314.664H8.8384L8.54482 314.961L9.256 315.664ZM1 324.016L0.288818 323.313L0 323.605V324.016H1ZM1 373.648H0V374.059L0.288818 374.351L1 373.648ZM9.256 382L8.54482 382.703L8.8384 383H9.256V382ZM171.801 324.016V325.016H174.215L172.508 323.309L171.801 324.016ZM139.161 324.016V323.016H138.161V324.016H139.161ZM163.449 315.664L164.156 314.957L163.863 314.664H163.449V315.664ZM137.913 315.664V314.664H137.496L137.202 314.961L137.913 315.664ZM129.657 324.016L128.946 323.313L128.657 323.605V324.016H129.657ZM129.657 340.528H128.657V340.942L128.95 341.235L129.657 340.528ZM137.913 348.784L137.206 349.491L137.499 349.784H137.913V348.784ZM159.801 348.784H160.801V347.784H159.801V348.784ZM159.801 373.648V374.648H160.801V373.648H159.801ZM139.161 373.648H138.161V374.648H139.161V373.648ZM139.161 357.904H140.161V355.558L138.469 357.182L139.161 357.904ZM129.657 367.024L128.965 366.302L128.657 366.598V367.024H129.657ZM129.657 373.648H128.657V374.059L128.946 374.351L129.657 373.648ZM137.913 382L137.202 382.703L137.496 383H137.913V382ZM161.145 382V383H161.566L161.861 382.699L161.145 382ZM169.305 373.648L170.021 374.347L170.305 374.055V373.648H169.305ZM169.305 348.784H170.305V348.373L170.016 348.081L169.305 348.784ZM161.145 340.528L161.856 339.825L161.563 339.528H161.145V340.528ZM139.161 340.528H138.161V341.528H139.161V340.528ZM250.105 381.904V382.904H251.105V381.904H250.105ZM240.601 381.904H239.601V382.904H240.601V381.904ZM250.105 315.664H251.105V314.664H250.105V315.664ZM233.689 315.664V314.664H233.05L232.781 315.244L233.689 315.664ZM223.609 337.456V338.456H224.248L224.517 337.876L223.609 337.456ZM222.457 337.456L221.546 337.869L221.813 338.456H222.457V337.456ZM212.569 315.664L213.48 315.251L213.213 314.664H212.569V315.664ZM195.577 315.664V314.664H194.577V315.664H195.577ZM195.577 381.904H194.577V382.904H195.577V381.904ZM205.081 381.904V382.904H206.081V381.904H205.081ZM205.081 329.968H206.081V329.549L205.782 329.255L205.081 329.968ZM199.129 324.112V323.112H196.687L198.428 324.825L199.129 324.112ZM206.809 324.112L207.704 323.666L207.428 323.112H206.809V324.112ZM219.097 348.784L218.202 349.23L218.478 349.784H219.097V348.784ZM226.009 348.784V349.784H226.617L226.897 349.244L226.009 348.784ZM238.777 324.112V323.112H238.169L237.889 323.652L238.777 324.112ZM246.553 324.112L247.254 324.825L248.995 323.112H246.553V324.112ZM240.601 329.968L239.9 329.255L239.601 329.549V329.968H240.601ZM311.797 382V383H312.797V382H311.797ZM278.677 382H277.677V383H278.677V382ZM311.797 373.648H312.797V372.648H311.797V373.648ZM288.181 373.648H287.181V374.648H288.181V373.648ZM288.181 348.784V347.784H287.181V348.784H288.181ZM311.797 348.784V349.784H312.797V348.784H311.797ZM311.797 340.528H312.797V339.528H311.797V340.528ZM295.189 340.528V339.528H294.771L294.477 339.826L295.189 340.528ZM288.181 347.632H287.181V350.07L288.893 348.334L288.181 347.632ZM288.181 324.016V323.016H287.181V324.016H288.181ZM311.797 324.016V325.016H312.797V324.016H311.797ZM311.797 315.664H312.797V314.664H311.797V315.664ZM277.525 315.664V314.664H276.525V315.664H277.525ZM277.525 324.016H276.525V325.016H277.525V324.016ZM287.029 324.016L287.728 324.731L289.483 323.016H287.029V324.016ZM278.677 332.176L277.978 331.461L277.677 331.755V332.176H278.677ZM365.285 324.016V325.016H366.285V324.016H365.285ZM350.405 324.016V323.016H349.405V324.016H350.405ZM365.285 315.664H366.285V314.664H365.285V315.664ZM326.117 315.664V314.664H325.117V315.664H326.117ZM326.117 324.016H325.117V325.016H326.117V324.016ZM340.901 324.016H341.901V323.016H340.901V324.016ZM340.901 382H339.901V383H340.901V382ZM350.405 382V383H351.405V382H350.405ZM393.912 382V383H394.912V382H393.912ZM384.408 382H383.408V383H384.408V382ZM393.912 315.664H394.912V314.664H393.912V315.664ZM384.408 315.664V314.664H383.408V315.664H384.408ZM461.676 373.648L462.383 374.355L462.676 374.062V373.648H461.676ZM453.324 382V383H453.738L454.031 382.707L453.324 382ZM461.676 357.136H462.676V354.722L460.969 356.429L461.676 357.136ZM452.172 366.64L451.465 365.933L451.172 366.226V366.64H452.172ZM452.172 373.648V374.648H453.172V373.648H452.172ZM430.86 373.648H429.86V374.648H430.86V373.648ZM430.86 324.016V323.016H429.86V324.016H430.86ZM452.172 324.016H453.172V323.016H452.172V324.016ZM452.172 340.528H451.172V342.959L452.883 341.232L452.172 340.528ZM461.676 330.928L462.387 331.632L462.676 331.339V330.928H461.676ZM461.676 324.016H462.676V323.602L462.383 323.309L461.676 324.016ZM453.324 315.664L454.031 314.957L453.738 314.664H453.324V315.664ZM429.612 315.664V314.664H429.195L428.901 314.961L429.612 315.664ZM421.356 324.016L420.645 323.313L420.356 323.605V324.016H421.356ZM421.356 373.648H420.356V374.059L420.645 374.351L421.356 373.648ZM429.612 382L428.901 382.703L429.195 383H429.612V382ZM524.62 324.016V325.016H527.034L525.327 323.309L524.62 324.016ZM491.98 324.016V323.016H490.98V324.016H491.98ZM516.268 315.664L516.975 314.957L516.682 314.664H516.268V315.664ZM490.732 315.664V314.664H490.314L490.021 314.961L490.732 315.664ZM482.476 324.016L481.765 323.313L481.476 323.605V324.016H482.476ZM482.476 340.528H481.476V340.942L481.769 341.235L482.476 340.528ZM490.732 348.784L490.025 349.491L490.318 349.784H490.732V348.784ZM512.62 348.784H513.62V347.784H512.62V348.784ZM512.62 373.648V374.648H513.62V373.648H512.62ZM491.98 373.648H490.98V374.648H491.98V373.648ZM491.98 357.904H492.98V355.558L491.288 357.182L491.98 357.904ZM482.476 367.024L481.784 366.302L481.476 366.598V367.024H482.476ZM482.476 373.648H481.476V374.059L481.765 374.351L482.476 373.648ZM490.732 382L490.021 382.703L490.314 383H490.732V382ZM513.964 382V383H514.385L514.679 382.699L513.964 382ZM522.124 373.648L522.839 374.347L523.124 374.055V373.648H522.124ZM522.124 348.784H523.124V348.373L522.835 348.081L522.124 348.784ZM513.964 340.528L514.675 339.825L514.382 339.528H513.964V340.528ZM491.98 340.528H490.98V341.528H491.98V340.528ZM74.1478 379.019C74.182 377.206 74.2843 375.095 74.4454 372.748L72.4501 372.611C72.2875 374.979 72.1831 377.125 72.1481 378.981L74.1478 379.019ZM74.0464 382.05C74.0931 381.123 74.1271 380.114 74.1478 379.019L72.1481 378.981C72.1278 380.059 72.0944 381.047 72.0489 381.95L74.0464 382.05ZM97.0637 381H73.0476V383H97.0637V381ZM104.709 372.941L96.3566 381.293L97.7709 382.707L106.123 374.355L104.709 372.941ZM104.416 324.016V373.648H106.416V324.016H104.416ZM96.3566 316.371L104.709 324.723L106.123 323.309L97.7709 314.957L96.3566 316.371ZM81.1436 316.664H97.0637V314.664H81.1436V316.664ZM80.6517 324.182C81.1451 321.254 81.6402 318.454 82.1267 315.847L80.1606 315.481C79.6718 318.1 79.1746 320.912 78.6795 323.85L80.6517 324.182ZM95.9117 323.016H79.6656V325.016H95.9117V323.016ZM96.9117 373.648V324.016H94.9117V373.648H96.9117ZM73.4478 374.648H95.9117V372.648H73.4478V374.648ZM72.4478 372.68V373.648H74.4478V372.68H72.4478ZM40.6129 372.941L32.2609 381.293L33.6751 382.707L42.0271 374.355L40.6129 372.941ZM40.32 357.136V373.648H42.32V357.136H40.32ZM32.5231 367.347L42.0271 357.843L40.6129 356.429L31.1089 365.933L32.5231 367.347ZM32.816 373.648V366.64H30.816V373.648H32.816ZM10.504 374.648H31.816V372.648H10.504V374.648ZM9.504 324.016V373.648H11.504V324.016H9.504ZM31.816 323.016H10.504V325.016H31.816V323.016ZM32.816 340.528V324.016H30.816V340.528H32.816ZM40.6094 330.224L31.1054 339.824L32.5267 341.232L42.0307 331.632L40.6094 330.224ZM40.32 324.016V330.928H42.32V324.016H40.32ZM32.2609 316.371L40.6129 324.723L42.0271 323.309L33.6751 314.957L32.2609 316.371ZM9.256 316.664H32.968V314.664H9.256V316.664ZM1.71118 324.719L9.96718 316.367L8.54482 314.961L0.288818 323.313L1.71118 324.719ZM2 373.648V324.016H0V373.648H2ZM9.96718 381.297L1.71118 372.945L0.288818 374.351L8.54482 382.703L9.96718 381.297ZM32.968 381H9.256V383H32.968V381ZM171.801 323.016H139.161V325.016H171.801V323.016ZM162.742 316.371L171.094 324.723L172.508 323.309L164.156 314.957L162.742 316.371ZM137.913 316.664H163.449V314.664H137.913V316.664ZM130.368 324.719L138.624 316.367L137.202 314.961L128.946 323.313L130.368 324.719ZM130.657 340.528V324.016H128.657V340.528H130.657ZM138.62 348.077L130.364 339.821L128.95 341.235L137.206 349.491L138.62 348.077ZM159.801 347.784H137.913V349.784H159.801V347.784ZM160.801 373.648V348.784H158.801V373.648H160.801ZM139.161 374.648H159.801V372.648H139.161V374.648ZM138.161 357.904V373.648H140.161V357.904H138.161ZM130.35 367.746L139.854 358.626L138.469 357.182L128.965 366.302L130.35 367.746ZM130.657 373.648V367.024H128.657V373.648H130.657ZM138.624 381.297L130.368 372.945L128.946 374.351L137.202 382.703L138.624 381.297ZM161.145 381H137.913V383H161.145V381ZM168.59 372.949L160.43 381.301L161.861 382.699L170.021 374.347L168.59 372.949ZM168.305 348.784V373.648H170.305V348.784H168.305ZM160.434 341.231L168.594 349.487L170.016 348.081L161.856 339.825L160.434 341.231ZM139.161 341.528H161.145V339.528H139.161V341.528ZM138.161 324.016V340.528H140.161V324.016H138.161ZM250.105 380.904H240.601V382.904H250.105V380.904ZM249.105 315.664V381.904H251.105V315.664H249.105ZM233.689 316.664H250.105V314.664H233.689V316.664ZM224.517 337.876L234.597 316.084L232.781 315.244L222.701 337.036L224.517 337.876ZM222.457 338.456H223.609V336.456H222.457V338.456ZM211.658 316.077L221.546 337.869L223.368 337.043L213.48 315.251L211.658 316.077ZM195.577 316.664H212.569V314.664H195.577V316.664ZM196.577 381.904V315.664H194.577V381.904H196.577ZM205.081 380.904H195.577V382.904H205.081V380.904ZM204.081 329.968V381.904H206.081V329.968H204.081ZM198.428 324.825L204.38 330.681L205.782 329.255L199.83 323.399L198.428 324.825ZM206.809 323.112H199.129V325.112H206.809V323.112ZM219.992 348.338L207.704 323.666L205.914 324.558L218.202 349.23L219.992 348.338ZM226.009 347.784H219.097V349.784H226.009V347.784ZM237.889 323.652L225.121 348.324L226.897 349.244L239.665 324.572L237.889 323.652ZM246.553 323.112H238.777V325.112H246.553V323.112ZM241.302 330.681L247.254 324.825L245.852 323.399L239.9 329.255L241.302 330.681ZM241.601 381.904V329.968H239.601V381.904H241.601ZM311.797 381H278.677V383H311.797V381ZM310.797 373.648V382H312.797V373.648H310.797ZM288.181 374.648H311.797V372.648H288.181V374.648ZM287.181 348.784V373.648H289.181V348.784H287.181ZM311.797 347.784H288.181V349.784H311.797V347.784ZM310.797 340.528V348.784H312.797V340.528H310.797ZM295.189 341.528H311.797V339.528H295.189V341.528ZM288.893 348.334L295.901 341.23L294.477 339.826L287.469 346.93L288.893 348.334ZM287.181 324.016V347.632H289.181V324.016H287.181ZM311.797 323.016H288.181V325.016H311.797V323.016ZM310.797 315.664V324.016H312.797V315.664H310.797ZM277.525 316.664H311.797V314.664H277.525V316.664ZM278.525 324.016V315.664H276.525V324.016H278.525ZM287.029 323.016H277.525V325.016H287.029V323.016ZM279.376 332.891L287.728 324.731L286.33 323.301L277.978 331.461L279.376 332.891ZM279.677 382V332.176H277.677V382H279.677ZM365.285 323.016H350.405V325.016H365.285V323.016ZM364.285 315.664V324.016H366.285V315.664H364.285ZM326.117 316.664H365.285V314.664H326.117V316.664ZM327.117 324.016V315.664H325.117V324.016H327.117ZM340.901 323.016H326.117V325.016H340.901V323.016ZM341.901 382V324.016H339.901V382H341.901ZM350.405 381H340.901V383H350.405V381ZM349.405 324.016V382H351.405V324.016H349.405ZM393.912 381H384.408V383H393.912V381ZM392.912 315.664V382H394.912V315.664H392.912ZM384.408 316.664H393.912V314.664H384.408V316.664ZM385.408 382V315.664H383.408V382H385.408ZM460.969 372.941L452.617 381.293L454.031 382.707L462.383 374.355L460.969 372.941ZM460.676 357.136V373.648H462.676V357.136H460.676ZM452.879 367.347L462.383 357.843L460.969 356.429L451.465 365.933L452.879 367.347ZM453.172 373.648V366.64H451.172V373.648H453.172ZM430.86 374.648H452.172V372.648H430.86V374.648ZM429.86 324.016V373.648H431.86V324.016H429.86ZM452.172 323.016H430.86V325.016H452.172V323.016ZM453.172 340.528V324.016H451.172V340.528H453.172ZM460.966 330.224L451.462 339.824L452.883 341.232L462.387 331.632L460.966 330.224ZM460.676 324.016V330.928H462.676V324.016H460.676ZM452.617 316.371L460.969 324.723L462.383 323.309L454.031 314.957L452.617 316.371ZM429.612 316.664H453.324V314.664H429.612V316.664ZM422.067 324.719L430.323 316.367L428.901 314.961L420.645 323.313L422.067 324.719ZM422.356 373.648V324.016H420.356V373.648H422.356ZM430.323 381.297L422.067 372.945L420.645 374.351L428.901 382.703L430.323 381.297ZM453.324 381H429.612V383H453.324V381ZM524.62 323.016H491.98V325.016H524.62V323.016ZM515.561 316.371L523.913 324.723L525.327 323.309L516.975 314.957L515.561 316.371ZM490.732 316.664H516.268V314.664H490.732V316.664ZM483.187 324.719L491.443 316.367L490.021 314.961L481.765 323.313L483.187 324.719ZM483.476 340.528V324.016H481.476V340.528H483.476ZM491.439 348.077L483.183 339.821L481.769 341.235L490.025 349.491L491.439 348.077ZM512.62 347.784H490.732V349.784H512.62V347.784ZM513.62 373.648V348.784H511.62V373.648H513.62ZM491.98 374.648H512.62V372.648H491.98V374.648ZM490.98 357.904V373.648H492.98V357.904H490.98ZM483.168 367.746L492.672 358.626L491.288 357.182L481.784 366.302L483.168 367.746ZM483.476 373.648V367.024H481.476V373.648H483.476ZM491.443 381.297L483.187 372.945L481.765 374.351L490.021 382.703L491.443 381.297ZM513.964 381H490.732V383H513.964V381ZM521.409 372.949L513.249 381.301L514.679 382.699L522.839 374.347L521.409 372.949ZM521.124 348.784V373.648H523.124V348.784H521.124ZM513.253 341.231L521.413 349.487L522.835 348.081L514.675 339.825L513.253 341.231ZM491.98 341.528H513.964V339.528H491.98V341.528ZM490.98 324.016V340.528H492.98V324.016H490.98Z" fill="black" mask="url(#path-5-outside-1_233_65)"/>
<line x1="376.416" y1="271.232" x2="409.416" y2="304.232" stroke="#D75D3E" stroke-width="5"/>
<path d="M175.628 465.344H178.328V443.528H175.628V441.872H184.124V443.528H181.424V465.344H184.124V467H175.628V465.344ZM201.753 465.344H204.453V443.528H201.753V441.872H207.837L221.337 462.032H221.481V443.528H218.781V441.872H226.161V443.528H223.461V467H221.049L206.577 445.364H206.433V465.344H209.133V467H201.753V465.344ZM252.093 467.432C250.581 467.432 249.345 467.204 248.385 466.748C247.449 466.268 246.789 465.632 246.405 464.84H246.225V467H243.633V459.62H246.225V461.276C246.225 461.876 246.309 462.44 246.477 462.968C246.669 463.472 246.969 463.916 247.377 464.3C247.809 464.684 248.361 464.984 249.033 465.2C249.729 465.416 250.569 465.524 251.553 465.524C253.641 465.524 255.141 465.08 256.053 464.192C256.989 463.304 257.457 462.116 257.457 460.628C257.457 459.356 257.097 458.36 256.377 457.64C255.681 456.92 254.577 456.356 253.065 455.948L251.085 455.444C248.853 454.868 247.125 454.004 245.901 452.852C244.677 451.7 244.065 450.116 244.065 448.1C244.065 447.092 244.257 446.18 244.641 445.364C245.025 444.524 245.565 443.816 246.261 443.24C246.957 442.664 247.785 442.22 248.745 441.908C249.729 441.596 250.809 441.44 251.985 441.44C253.353 441.44 254.469 441.656 255.333 442.088C256.221 442.496 256.845 443.072 257.205 443.816H257.421V441.872H260.013V448.892H257.421V447.236C257.421 446.636 257.325 446.096 257.133 445.616C256.965 445.136 256.665 444.728 256.233 444.392C255.801 444.056 255.237 443.804 254.541 443.636C253.845 443.444 252.993 443.348 251.985 443.348C250.305 443.348 249.045 443.732 248.205 444.5C247.365 445.268 246.945 446.276 246.945 447.524C246.945 448.82 247.317 449.84 248.061 450.584C248.829 451.304 250.029 451.88 251.661 452.312L253.497 452.78C255.681 453.356 257.361 454.22 258.537 455.372C259.713 456.524 260.301 458.036 260.301 459.908C260.301 460.988 260.121 461.996 259.761 462.932C259.401 463.844 258.873 464.636 258.177 465.308C257.481 465.98 256.617 466.508 255.585 466.892C254.577 467.252 253.413 467.432 252.093 467.432ZM278.297 465.344H280.997V443.528H278.297V441.872H290.033C292.313 441.872 294.053 442.448 295.253 443.6C296.477 444.728 297.089 446.396 297.089 448.604C297.089 450.788 296.465 452.48 295.217 453.68C293.969 454.88 292.217 455.48 289.961 455.48H284.093V465.344H287.513V467H278.297V465.344ZM284.093 453.716H289.781C291.077 453.716 292.061 453.308 292.733 452.492C293.429 451.676 293.777 450.68 293.777 449.504V447.848C293.777 446.672 293.429 445.676 292.733 444.86C292.061 444.044 291.077 443.636 289.781 443.636H284.093V453.716ZM314.477 465.344H317.177V443.528H314.477V441.872H322.973V443.528H320.273V465.344H322.973V467H314.477V465.344ZM340.602 465.344H343.302V443.528H340.602V441.872H352.338C354.57 441.872 356.298 442.436 357.522 443.564C358.77 444.668 359.394 446.324 359.394 448.532C359.394 450.236 358.914 451.664 357.954 452.816C357.018 453.944 355.638 454.676 353.814 455.012L358.026 462.824C358.506 463.688 359.046 464.324 359.646 464.732C360.246 465.14 360.99 465.344 361.878 465.344H362.202V467H359.898C359.202 467 358.614 466.928 358.134 466.784C357.678 466.64 357.27 466.436 356.91 466.172C356.55 465.908 356.226 465.572 355.938 465.164C355.674 464.756 355.398 464.288 355.11 463.76L350.646 455.444H346.398V465.344H349.098V467H340.602V465.344ZM346.398 453.68H352.05C353.346 453.68 354.342 453.284 355.038 452.492C355.734 451.676 356.082 450.68 356.082 449.504V447.848C356.082 446.672 355.734 445.676 355.038 444.86C354.342 444.044 353.346 443.636 352.05 443.636H346.398V453.68ZM377.417 465.344H379.325L387.497 441.872H390.917L399.053 465.344H400.961V467H392.465V465.344H395.705L393.473 458.828H383.681L381.449 465.344H384.689V467H377.417V465.344ZM384.185 457.1H392.933L388.721 444.5H388.505L384.185 457.1ZM420 465.344H423.42V443.636H417.084V447.92H414.492V441.872H435.444V447.92H432.852V443.636H426.516V465.344H429.936V467H420V465.344ZM452.377 465.344H455.077V443.528H452.377V441.872H460.873V443.528H458.173V465.344H460.873V467H452.377V465.344ZM489.41 465.524C490.634 465.524 491.714 465.308 492.65 464.876C493.61 464.42 494.414 463.796 495.062 463.004C495.71 462.188 496.202 461.228 496.538 460.124C496.874 459.02 497.042 457.808 497.042 456.488V452.384C497.042 451.064 496.874 449.852 496.538 448.748C496.202 447.644 495.71 446.696 495.062 445.904C494.414 445.088 493.61 444.464 492.65 444.032C491.714 443.576 490.634 443.348 489.41 443.348C488.186 443.348 487.094 443.576 486.134 444.032C485.198 444.464 484.406 445.088 483.758 445.904C483.11 446.696 482.618 447.644 482.282 448.748C481.946 449.852 481.778 451.064 481.778 452.384V456.488C481.778 457.808 481.946 459.02 482.282 460.124C482.618 461.228 483.11 462.188 483.758 463.004C484.406 463.796 485.198 464.42 486.134 464.876C487.094 465.308 488.186 465.524 489.41 465.524ZM489.41 467.432C487.754 467.432 486.242 467.132 484.874 466.532C483.506 465.932 482.33 465.068 481.346 463.94C480.386 462.812 479.642 461.456 479.114 459.872C478.586 458.264 478.322 456.452 478.322 454.436C478.322 452.42 478.586 450.62 479.114 449.036C479.642 447.428 480.386 446.06 481.346 444.932C482.33 443.804 483.506 442.94 484.874 442.34C486.242 441.74 487.754 441.44 489.41 441.44C491.066 441.44 492.578 441.74 493.946 442.34C495.314 442.94 496.478 443.804 497.438 444.932C498.422 446.06 499.178 447.428 499.706 449.036C500.234 450.62 500.498 452.42 500.498 454.436C500.498 456.452 500.234 458.264 499.706 459.872C499.178 461.456 498.422 462.812 497.438 463.94C496.478 465.068 495.314 465.932 493.946 466.532C492.578 467.132 491.066 467.432 489.41 467.432ZM517.951 465.344H520.651V443.528H517.951V441.872H524.035L537.535 462.032H537.679V443.528H534.979V441.872H542.359V443.528H539.659V467H537.247L522.775 445.364H522.631V465.344H525.331V467H517.951V465.344ZM581.698 465.344H584.398V443.528H581.698V441.872H600.274V447.92H597.682V443.636H587.494V453.716H594.622V450.836H596.782V458.36H594.622V455.48H587.494V465.344H590.914V467H581.698V465.344ZM628.224 465.524C629.448 465.524 630.528 465.308 631.464 464.876C632.424 464.42 633.228 463.796 633.876 463.004C634.524 462.188 635.016 461.228 635.352 460.124C635.688 459.02 635.856 457.808 635.856 456.488V452.384C635.856 451.064 635.688 449.852 635.352 448.748C635.016 447.644 634.524 446.696 633.876 445.904C633.228 445.088 632.424 444.464 631.464 444.032C630.528 443.576 629.448 443.348 628.224 443.348C627 443.348 625.908 443.576 624.948 444.032C624.012 444.464 623.22 445.088 622.572 445.904C621.924 446.696 621.432 447.644 621.096 448.748C620.76 449.852 620.592 451.064 620.592 452.384V456.488C620.592 457.808 620.76 459.02 621.096 460.124C621.432 461.228 621.924 462.188 622.572 463.004C623.22 463.796 624.012 464.42 624.948 464.876C625.908 465.308 627 465.524 628.224 465.524ZM628.224 467.432C626.568 467.432 625.056 467.132 623.688 466.532C622.32 465.932 621.144 465.068 620.16 463.94C619.2 462.812 618.456 461.456 617.928 459.872C617.4 458.264 617.136 456.452 617.136 454.436C617.136 452.42 617.4 450.62 617.928 449.036C618.456 447.428 619.2 446.06 620.16 444.932C621.144 443.804 622.32 442.94 623.688 442.34C625.056 441.74 626.568 441.44 628.224 441.44C629.88 441.44 631.392 441.74 632.76 442.34C634.128 442.94 635.292 443.804 636.252 444.932C637.236 446.06 637.992 447.428 638.52 449.036C639.048 450.62 639.312 452.42 639.312 454.436C639.312 456.452 639.048 458.264 638.52 459.872C637.992 461.456 637.236 462.812 636.252 463.94C635.292 465.068 634.128 465.932 632.76 466.532C631.392 467.132 629.88 467.432 628.224 467.432ZM656.765 465.344H659.465V443.528H656.765V441.872H668.501C670.733 441.872 672.461 442.436 673.685 443.564C674.933 444.668 675.557 446.324 675.557 448.532C675.557 450.236 675.077 451.664 674.117 452.816C673.181 453.944 671.801 454.676 669.977 455.012L674.189 462.824C674.669 463.688 675.209 464.324 675.809 464.732C676.409 465.14 677.153 465.344 678.041 465.344H678.365V467H676.061C675.365 467 674.777 466.928 674.297 466.784C673.841 466.64 673.433 466.436 673.073 466.172C672.713 465.908 672.389 465.572 672.101 465.164C671.837 464.756 671.561 464.288 671.273 463.76L666.809 455.444H662.561V465.344H665.261V467H656.765V465.344ZM662.561 453.68H668.213C669.509 453.68 670.505 453.284 671.201 452.492C671.897 451.676 672.245 450.68 672.245 449.504V447.848C672.245 446.672 671.897 445.676 671.201 444.86C670.505 444.044 669.509 443.636 668.213 443.636H662.561V453.68Z" fill="black"/>
<path d="M321.092 522.344H324.512V513.884L317.276 500.528H315.368V498.872H324.044V500.528H320.804L326.6 511.688H326.744L332.684 500.528H329.444V498.872H336.752V500.528H334.844L327.608 513.704V522.344H331.028V524H321.092V522.344ZM362.943 522.524C364.167 522.524 365.247 522.308 366.183 521.876C367.143 521.42 367.947 520.796 368.595 520.004C369.243 519.188 369.735 518.228 370.071 517.124C370.407 516.02 370.575 514.808 370.575 513.488V509.384C370.575 508.064 370.407 506.852 370.071 505.748C369.735 504.644 369.243 503.696 368.595 502.904C367.947 502.088 367.143 501.464 366.183 501.032C365.247 500.576 364.167 500.348 362.943 500.348C361.719 500.348 360.627 500.576 359.667 501.032C358.731 501.464 357.939 502.088 357.291 502.904C356.643 503.696 356.151 504.644 355.815 505.748C355.479 506.852 355.311 508.064 355.311 509.384V513.488C355.311 514.808 355.479 516.02 355.815 517.124C356.151 518.228 356.643 519.188 357.291 520.004C357.939 520.796 358.731 521.42 359.667 521.876C360.627 522.308 361.719 522.524 362.943 522.524ZM362.943 524.432C361.287 524.432 359.775 524.132 358.407 523.532C357.039 522.932 355.863 522.068 354.879 520.94C353.919 519.812 353.175 518.456 352.647 516.872C352.119 515.264 351.855 513.452 351.855 511.436C351.855 509.42 352.119 507.62 352.647 506.036C353.175 504.428 353.919 503.06 354.879 501.932C355.863 500.804 357.039 499.94 358.407 499.34C359.775 498.74 361.287 498.44 362.943 498.44C364.599 498.44 366.111 498.74 367.479 499.34C368.847 499.94 370.011 500.804 370.971 501.932C371.955 503.06 372.711 504.428 373.239 506.036C373.767 507.62 374.031 509.42 374.031 511.436C374.031 513.452 373.767 515.264 373.239 516.872C372.711 518.456 371.955 519.812 370.971 520.94C370.011 522.068 368.847 522.932 367.479 523.532C366.111 524.132 364.599 524.432 362.943 524.432ZM403.004 524.432C401.372 524.432 399.968 524.252 398.792 523.892C397.64 523.532 396.692 522.944 395.948 522.128C395.204 521.312 394.664 520.268 394.328 518.996C393.992 517.724 393.824 516.164 393.824 514.316V500.528H391.124V498.872H399.62V500.528H396.92V514.892C396.92 516.164 397.028 517.268 397.244 518.204C397.46 519.14 397.808 519.92 398.288 520.544C398.792 521.144 399.44 521.6 400.232 521.912C401.024 522.224 402.008 522.38 403.184 522.38C405.536 522.38 407.204 521.768 408.188 520.544C409.172 519.296 409.664 517.412 409.664 514.892V500.528H406.964V498.872H414.344V500.528H411.644V513.848C411.644 515.672 411.5 517.256 411.212 518.6C410.924 519.92 410.432 521.012 409.736 521.876C409.064 522.74 408.176 523.388 407.072 523.82C405.968 524.228 404.612 524.432 403.004 524.432ZM431.637 522.344H434.337V500.528H431.637V498.872H443.373C445.605 498.872 447.333 499.436 448.557 500.564C449.805 501.668 450.429 503.324 450.429 505.532C450.429 507.236 449.949 508.664 448.989 509.816C448.053 510.944 446.673 511.676 444.849 512.012L449.061 519.824C449.541 520.688 450.081 521.324 450.681 521.732C451.281 522.14 452.025 522.344 452.913 522.344H453.237V524H450.933C450.237 524 449.649 523.928 449.169 523.784C448.713 523.64 448.305 523.436 447.945 523.172C447.585 522.908 447.261 522.572 446.973 522.164C446.709 521.756 446.433 521.288 446.145 520.76L441.681 512.444H437.433V522.344H440.133V524H431.637V522.344ZM437.433 510.68H443.085C444.381 510.68 445.377 510.284 446.073 509.492C446.769 508.676 447.117 507.68 447.117 506.504V504.848C447.117 503.672 446.769 502.676 446.073 501.86C445.377 501.044 444.381 500.636 443.085 500.636H437.433V510.68ZM491.551 522.344H494.251V500.528H491.551V498.872H503.575C505.687 498.872 507.331 499.412 508.507 500.492C509.707 501.572 510.307 503.012 510.307 504.812C510.307 505.7 510.175 506.492 509.911 507.188C509.647 507.884 509.287 508.484 508.831 508.988C508.399 509.492 507.895 509.9 507.319 510.212C506.767 510.524 506.191 510.728 505.591 510.824V510.932C506.215 510.98 506.863 511.136 507.535 511.4C508.207 511.664 508.819 512.048 509.371 512.552C509.923 513.056 510.379 513.68 510.739 514.424C511.099 515.168 511.279 516.032 511.279 517.016C511.279 518.072 511.111 519.032 510.775 519.896C510.463 520.76 510.007 521.504 509.407 522.128C508.831 522.728 508.135 523.196 507.319 523.532C506.503 523.844 505.615 524 504.655 524H491.551V522.344ZM497.347 522.236H503.539C504.931 522.236 506.011 521.828 506.779 521.012C507.571 520.196 507.967 519.14 507.967 517.844V516.26C507.967 514.988 507.571 513.944 506.779 513.128C506.011 512.312 504.931 511.904 503.539 511.904H497.347V522.236ZM497.347 510.14H502.963C504.259 510.14 505.255 509.768 505.951 509.024C506.647 508.28 506.995 507.332 506.995 506.18V504.596C506.995 503.444 506.647 502.496 505.951 501.752C505.255 501.008 504.259 500.636 502.963 500.636H497.347V510.14ZM529.349 522.344H532.049V500.528H529.349V498.872H547.925V504.92H545.333V500.636H535.145V510.176H542.273V507.296H544.433V514.82H542.273V511.94H535.145V522.236H545.693V517.628H548.285V524H529.349V522.344ZM564.687 522.344H566.595L574.767 498.872H578.187L586.323 522.344H588.231V524H579.735V522.344H582.975L580.743 515.828H570.951L568.719 522.344H571.959V524H564.687V522.344ZM571.455 514.1H580.203L575.991 501.5H575.775L571.455 514.1ZM615.057 524.432C613.425 524.432 612.021 524.252 610.845 523.892C609.693 523.532 608.745 522.944 608.001 522.128C607.257 521.312 606.717 520.268 606.381 518.996C606.045 517.724 605.877 516.164 605.877 514.316V500.528H603.177V498.872H611.673V500.528H608.973V514.892C608.973 516.164 609.081 517.268 609.297 518.204C609.513 519.14 609.861 519.92 610.341 520.544C610.845 521.144 611.493 521.6 612.285 521.912C613.077 522.224 614.061 522.38 615.237 522.38C617.589 522.38 619.257 521.768 620.241 520.544C621.225 519.296 621.717 517.412 621.717 514.892V500.528H619.017V498.872H626.397V500.528H623.697V513.848C623.697 515.672 623.553 517.256 623.265 518.6C622.977 519.92 622.485 521.012 621.789 521.876C621.117 522.74 620.229 523.388 619.125 523.82C618.021 524.228 616.665 524.432 615.057 524.432ZM648.477 522.344H651.897V500.636H645.561V504.92H642.969V498.872H663.921V504.92H661.329V500.636H654.993V522.344H658.413V524H648.477V522.344ZM685.845 522.344H689.265V513.884L682.029 500.528H680.121V498.872H688.797V500.528H685.557L691.353 511.688H691.497L697.437 500.528H694.197V498.872H701.505V500.528H699.597L692.361 513.704V522.344H695.781V524H685.845V522.344Z" fill="black"/>
<defs>
<filter id="filter0_d_233_65" x="39.3465" y="0.700001" width="798.6" height="798.6" filterUnits="userSpaceOnUse" color-interpolation-filters="sRGB">
<feFlood flood-opacity="0" result="BackgroundImageFix"/>
<feColorMatrix in="SourceAlpha" type="matrix" values="0 0 0 0 0 0 0 0 0 0 0 0 0 0 0 0 0 0 127 0" result="hardAlpha"/>
<feOffset dy="4"/>
<feGaussianBlur stdDeviation="16.15"/>
<feComposite in2="hardAlpha" operator="out"/>
<feColorMatrix type="matrix" values="0 0 0 0 0 0 0 0 0 0 0 0 0 0 0 0 0 0 0.51 0"/>
<feBlend mode="normal" in2="BackgroundImageFix" result="effect1_dropShadow_233_65"/>
<feBlend mode="normal" in="SourceGraphic" in2="effect1_dropShadow_233_65" result="shape"/>
</filter>
</defs>
</svg>
