<svg width="35" height="271" viewBox="0 0 35 271" fill="none" xmlns="http://www.w3.org/2000/svg">
<path d="M21.316 2.668L21.316 23.584L18.796 23.584L18.796 2.668L21.316 2.668ZM13.504 2.668L13.504 23.584L10.984 23.584L10.984 2.668L13.504 2.668ZM5.62 2.668L5.62 23.584L3.1 23.584L3.1 2.668L5.62 2.668ZM29.308 0.832L29.308 25.672L1.264 25.672L1.264 22.864L26.716 22.864L26.716 3.568L1.084 3.568L1.084 0.831998L29.308 0.832ZM34.276 11.38L33.88 14.512C31.72 13.72 29.38 12.784 27.832 11.992L28.3 9.58C29.992 10.228 32.512 11.02 34.276 11.38ZM31.864 65.308L33.268 67.36C31.468 69.484 28.912 72.004 27.256 73.192L25.672 70.96C27.4 69.88 29.992 67.432 31.864 65.308ZM23.584 41.98L23.584 74.056L20.992 74.056L20.992 41.98L23.584 41.98ZM13 41.44C13.792 45.724 15.232 52.492 16.6 58.828L14.152 59.044C12.784 53.14 11.308 46.768 10.3 42.232L13 41.44ZM30.568 49.72L30.568 52.42L4.576 52.42C2.812 52.42 2.02 51.988 1.588 50.836C1.156 49.684 1.048 47.776 1.084 44.788C1.804 44.644 3.028 44.176 3.82 43.78C3.712 46.084 3.748 48.208 3.784 48.856C3.784 49.504 3.964 49.72 4.612 49.72L30.568 49.72ZM33.808 56.56L31.54 58.468C30.1 54.292 28.984 48.172 28.264 43.024C28.876 42.88 29.884 42.556 30.496 42.196C31.288 47.272 32.512 53.104 33.808 56.56ZM33.916 60.16L33.916 62.968C17.392 62.896 3.712 66.424 3.712 70.816C3.712 71.788 5.584 72.22 10.228 72.436C9.616 73.012 9.004 73.984 8.716 74.74C2.74 74.236 0.975996 73.264 0.975996 70.564C0.975997 63.508 16.78 60.304 33.916 60.16ZM19.336 69.916L18.328 72.328C11.74 68.8 5.944 62.86 2.452 56.236C3.136 55.804 4 55.048 4.612 54.364C7.708 60.772 13.252 66.712 19.336 69.916ZM31.216 88.564L31.216 117.472L28.876 117.472L28.876 88.564L31.216 88.564ZM25.924 90.22L25.924 116.068L23.656 116.068L23.656 90.22L25.924 90.22ZM20.416 87.232L20.416 118.696L18.04 118.696L18.04 87.232L20.416 87.232ZM34.24 101.524L34.24 104.26L18.58 104.26L18.58 101.524L34.24 101.524ZM19.624 101.416L18.508 103.756C14.404 100.012 10.624 93.352 8.788 87.772C9.472 87.34 10.48 86.584 11.02 86.008C12.604 91.552 16.06 98.068 19.624 101.416ZM19.264 105.34C11.56 107.5 5.87199 112.18 3.60399 119.812C3.06399 119.2 1.94799 118.444 1.22799 118.048C3.96399 110.092 10.048 105.376 18.76 102.892L19.264 105.34ZM16.852 115.6L15.16 117.76C13.108 115.204 10.912 111.784 9.472 109.192L10.948 107.536C12.46 110.056 14.944 113.548 16.852 115.6ZM3.604 90.004C4.504 94.144 6.124 100.624 7.636 106.78L5.224 107.032C3.748 101.344 2.2 95.188 1.12 90.868L3.604 90.004ZM12.928 95.08L14.872 97.024L14.656 97.78L3.784 97.78L3.784 95.08L12.928 95.08ZM25.708 141.16L25.708 163.66L23.188 163.66L23.188 141.16L25.708 141.16ZM17.464 139.576L6.95199 139.576L6.95199 136.948L14.98 136.948L14.98 131.8L17.464 131.8L17.464 139.576ZM8.39199 139.576C5.76399 141.268 4.50399 144.436 4.35999 148.576C4.21599 152.5 4.28799 160.528 4.57599 164.776C3.96399 164.452 2.70399 164.02 1.87599 163.912C1.73199 159.988 1.65999 152.536 1.76799 148.612C1.98399 143.896 3.27999 140.656 6.08799 138.388C4.53999 136.588 2.99199 134.716 1.40799 132.7L4.10799 131.296C5.25999 133.096 6.84399 135.256 8.39199 137.164L8.39199 139.576ZM32.116 133.492L33.772 135.328C32.62 137.524 30.784 140.188 29.308 141.412L27.472 139.504C28.912 138.28 30.856 135.724 32.116 133.492ZM24.772 132.016L26.536 133.816C25.456 136.12 23.62 138.928 22.18 140.296L20.272 138.424C21.712 137.164 23.62 134.392 24.772 132.016ZM34.132 150.736L34.132 153.436C20.884 153.22 11.596 152.716 6.87999 142.6C7.49199 142.24 8.46399 141.412 8.93199 140.8C13.216 150.376 21.64 150.592 34.132 150.736ZM24.196 153.652C16.6 154.948 11.488 157.936 9.25599 164.344C8.71599 163.732 7.67199 162.976 6.95199 162.616C9.68799 155.848 15.232 152.752 23.836 151.276L24.196 153.652ZM34.132 196.775L34.132 199.223L1.15599 199.223L1.15599 196.775L34.132 196.775ZM22.144 191.663L22.144 203.255L19.588 203.255L19.588 191.663L22.144 191.663ZM20.812 196.631L20.056 198.323C15.232 197.207 8.89599 194.975 5.58399 192.707C6.41199 192.419 7.59999 191.735 8.35599 191.267C11.164 193.391 16.636 195.659 20.812 196.631ZM18.904 199.151C17.86 200.051 13.216 203.219 12.064 203.903L9.97599 202.103C11.848 201.347 16.312 198.827 17.86 197.819L18.904 199.151ZM31.432 192.059L31.9 193.895C29.38 194.939 26.14 195.767 24.016 196.019L23.512 194.039C25.636 193.823 28.948 192.995 31.432 192.059ZM32.044 202.031L31.468 204.299C28.804 203.399 25.42 202.319 23.404 201.383L23.944 199.727C26.068 200.519 29.596 201.527 32.044 202.031ZM31.288 205.523L31.288 223.847L29.236 223.847L29.236 205.523L31.288 205.523ZM27.004 206.423L27.004 223.055L25.024 223.055L25.024 206.423L27.004 206.423ZM22.576 204.515L22.576 224.747L20.488 224.747L20.488 204.515L22.576 204.515ZM34.204 213.083L34.204 215.675L21.424 215.675L21.424 213.083L34.204 213.083ZM18.292 206.783L18.292 220.643L16.24 220.643L16.24 209.339L1.15599 209.339L1.15599 206.783L18.292 206.783ZM18.292 219.815L18.292 222.371L3.89199 222.371C2.59599 222.371 1.91199 222.119 1.51599 221.147C1.15599 220.211 1.15599 218.699 1.15599 216.467C1.80399 216.323 2.73999 215.999 3.38799 215.675C3.35199 217.295 3.35199 218.771 3.35199 219.239C3.35199 219.707 3.49599 219.815 3.89199 219.815L18.292 219.815ZM13.576 208.151L13.576 220.859L11.632 220.859L11.632 208.151L13.576 208.151ZM8.93199 208.151L8.93199 220.859L6.98799 220.859L6.98799 208.151L8.93199 208.151ZM31.936 236.879L31.936 253.007L29.416 253.007L29.416 236.879L31.936 236.879ZM15.16 237.671L15.16 252.431L12.676 252.431L12.676 237.671L15.16 237.671ZM19.372 243.539L19.372 246.131L5.65599 246.131L5.65599 243.539L19.372 243.539ZM5.79999 236.591C6.37599 240.767 7.49199 247.247 8.53599 253.403L5.97999 253.547C4.89999 247.643 3.81999 241.415 3.02799 237.023L5.79999 236.591ZM22.144 236.519C22.324 240.083 22.72 245.411 23.152 250.667L20.812 250.703C20.344 245.699 19.948 240.551 19.624 236.843L22.144 236.519ZM30.532 242.135L29.884 244.907C26.824 243.683 23.08 242.135 20.776 240.803L21.424 238.643C23.836 239.867 27.796 241.343 30.532 242.135ZM26.428 246.671L27.472 248.795C25.276 250.451 22.36 252.323 20.488 253.079L19.264 250.811C21.172 250.091 24.232 248.291 26.428 246.671ZM27.508 256.103L27.508 269.603L24.988 269.603L24.988 256.103L27.508 256.103ZM34.24 257.003L33.772 259.775C27.076 258.515 20.776 256.355 16.672 253.403C17.176 252.899 18.04 251.747 18.472 251.099C22.18 254.015 28.12 255.923 34.24 257.003ZM26.104 264.707L25.78 267.443C13.252 265.499 5.61999 261.359 1.01199 251.855C1.65999 251.603 2.88399 250.775 3.42399 250.271C7.38399 259.271 14.584 263.051 26.104 264.707ZM25.204 257.219C15.196 258.947 6.84399 262.763 3.38799 270.071C2.84799 269.423 1.80399 268.595 1.08399 268.163C5.07999 260.531 13.756 256.751 24.772 254.771L25.204 257.219Z" fill="#006B44"/>
</svg>
